<svg class="border shadow-md dark:border-slate-700" viewBox="0 0 448.965 798.16" style="width: 448.965px; height: 798.16px;" xmlns="http://www.w3.org/2000/svg" preserveAspectRatio="none"><rect class="bg" id="bg" x="0" y="0" width="448.965" height="798.16" fill="#ffffff"/><g transform="rotate(0 224.4825 399.08)"><path d="M -324.48 -49.82 S -229.00 -89.72&#10;            0.00 -49.82 88.48 -89.72&#10;            324.48 -49.82 381.96 -115.82&#10;            648.96 -49.82 741.45 -118.82&#10;            973.45 -49.82 h 110 V 998.16 H -324.48 Z" fill="#1BD55F" id="-1"/><path d="M -324.48 30.00 S -258.00 -10.00&#10;            0.00 30.00 152.24 -9.91&#10;            324.48 30.00 327.96 -46.00&#10;            648.96 30.00 658.45 -9.91&#10;            973.45 30.00 h 110 V 998.16 H -324.48 Z" fill="#18c357" id="0"/><path d="M -324.48 109.82 S -326.00 69.91&#10;            0.00 109.82 77.48 39.82&#10;            324.48 109.82 409.96 47.82&#10;            648.96 109.82 709.45 69.91&#10;            973.45 109.82 h 110 V 998.16 H -324.48 Z" fill="#15b14f" id="1"/><path d="M -324.48 189.63 S -172.24 149.72&#10;            0.00 189.63 152.24 145.63&#10;            324.48 189.63 476.72 126.63&#10;            648.96 189.63 801.21 134.63&#10;            973.45 189.63 h 110 V 998.16 H -324.48 Z" fill="#129f47" id="2"/><path d="M -324.48 269.45 S -175.00 205.45&#10;            0.00 269.45 152.24 199.45&#10;            324.48 269.45 476.72 195.45&#10;            648.96 269.45 730.45 197.45&#10;            973.45 269.45 h 110 V 998.16 H -324.48 Z" fill="#0f8d3f" id="3"/><path d="M -324.48 349.26 S -172.24 306.26&#10;            0.00 349.26 3.48 309.36&#10;            324.48 349.26 420.96 270.26&#10;            648.96 349.26 731.45 309.36&#10;            973.45 349.26 h 110 V 998.16 H -324.48 Z" fill="#0c7b37" id="4"/><path d="M -324.48 429.08 S -172.24 379.08&#10;            0.00 429.08 152.24 375.08&#10;            324.48 429.08 439.96 389.17&#10;            648.96 429.08 801.21 384.08&#10;            973.45 429.08 h 110 V 998.16 H -324.48 Z" fill="#09692f" id="5"/><path d="M -324.48 508.90 S -333.00 432.90&#10;            0.00 508.90 152.24 435.90&#10;            324.48 508.90 476.72 468.99&#10;            648.96 508.90 732.45 468.99&#10;            973.45 508.90 h 110 V 998.16 H -324.48 Z" fill="#065727" id="6"/><path d="M -324.48 588.71 S -172.24 543.71&#10;            0.00 588.71 152.24 532.71&#10;            324.48 588.71 449.96 530.71&#10;            648.96 588.71 801.21 548.80&#10;            973.45 588.71 h 110 V 998.16 H -324.48 Z" fill="#03451f" id="7"/><path d="M -324.48 668.53 S -172.24 607.53&#10;            0.00 668.53 152.24 628.62&#10;            324.48 668.53 387.96 602.53&#10;            648.96 668.53 708.45 592.53&#10;            973.45 668.53 h 110 V 998.16 H -324.48 Z" fill="#003317" id="8"/><path d="M -324.48 748.34 S -172.24 707.34&#10;            0.00 748.34 152.24 708.44&#10;            324.48 748.34 455.96 678.34&#10;            648.96 748.34 801.21 685.34&#10;            973.45 748.34 h 110 V 998.16 H -324.48 Z" fill="#00210f" id="9"/></g></svg>